<svg xmlns="http://www.w3.org/2000/svg" version="1.1" xmlns:xlink="http://www.w3.org/1999/xlink" width="630" height="126" viewBox="0 0 630 126"><svg xml:space="preserve" width="630" height="126" data-version="2" data-id="lg_ZCGJzAqCBb5neh2T07" viewBox="0 0 630 126" x="0" y="0"><rect width="100%" height="100%" fill="transparent"></rect><g transform="translate(400.735 28.52)"><filter id="a" width="144.38%" height="180.34%" x="-22.19%" y="-40.17%"><feGaussianBlur in="SourceAlpha" stdDeviation="3"></feGaussianBlur><feOffset dx="3" dy="3" result="oBlur"></feOffset><feFlood flood-color="#000" flood-opacity="1"></feFlood><feComposite in2="oBlur" operator="in"></feComposite><feMerge><feMergeNode></feMergeNode><feMergeNode in="SourceGraphic"></feMergeNode></feMerge></filter><g><path fill="#1f222a" d="m-191.965-17.34-7.62.13-.14 15.17 7.35.14 7.07-.21.41.55-.47 4.15-7.56-.21-6.87.07-.06 5.65.27 13.6h-5.51l.34-13.13-.34-30.47h23.19l.41.54-.47 4.36zm21.97-4.56-.34 30 .27 13.6h-5.51l.34-13.13-.34-30.47zm24.49-.34q4.69 0 9.73 2.04l-.89 5.24-.95.27q-1.97-1.5-4.18-2.31-2.22-.82-4.39-.82-2.52 0-4.39 1.02-1.87 1.02-2.86 2.65-.98 1.64-.98 3.4 0 1.84 1.12 3.24 1.12 1.39 2.82 2.41 1.7 1.02 4.63 2.45 3.67 1.7 5.92 3.16 2.24 1.47 3.84 3.71 1.6 2.24 1.6 5.44 0 3.4-1.84 6.26t-5.17 4.56q-3.33 1.7-7.62 1.7-2.85 0-5.95-.78-3.09-.79-5.75-2.28l.68-5.58.75-.34q2.38 2.31 5.27 3.43 2.89 1.13 5.55 1.13 2.58 0 4.59-1.02t3.06-2.72q1.05-1.71 1.05-3.61 0-2.86-2.17-4.59-2.18-1.74-6.6-3.78-3.61-1.77-5.78-3.16-2.18-1.39-3.74-3.61-1.57-2.21-1.57-5.4 0-3.34 1.8-6.13 1.81-2.78 5.04-4.38t7.38-1.6m35.85 0q6.87 0 11.9 3.26l-1.09 4.97-.61.14q-4.56-3.81-10.47-3.81-6.47 0-9.94 4.45-3.47 4.46-3.47 13.03 0 8.64 3.47 13.2 3.47 4.55 9.8 4.55 2.99 0 5.95-1.09 2.96-1.08 5.41-3.06l.68.34-.48 5.17q-5.91 3.27-12.04 3.27-8.77 0-13.6-5.68t-4.83-16.23q0-10.81 5.03-16.66 5.04-5.85 14.29-5.85m53.6.34-.27 30 .13 13.6h-5.37l.27-13.13-.07-6.53-12.1-.06-11.09.06-.07 6.06.2 13.6h-5.37l.2-13.13-.2-30.47h5.44l-.2 19.32 11.56.07 11.63-.07-.2-19.32zm37.28 38.84.34.54-.41 4.22h-24.49l.34-13.13-.34-30.47h24.56l.27.54-.41 4.22-10.27-.2-8.64.13-.13 14.29 8.16.13 7.21-.2.41.48-.48 4.21-7.62-.13-7.75.07-.07 6.46.2 9.04 8.64.07zM7.205 4.08q4.49 7.42 11.3 16.33l-.07.68q-2.45.95-5.04 1.22l-.74-.47q-5.58-8.37-10-16.33h-7.96V8.1l.27 13.6h-5.51l.34-13.13-.34-30.47 13.33-.07q6.4 0 9.9 3.23t3.5 9.22q0 4.49-2.34 8.06-2.35 3.57-6.64 5.54m-12.24-21.36-.2 18.17 8.16.2q7.62-2.18 7.62-10.13 0-4.15-2.25-6.23-2.24-2.07-6.73-2.21zm33.81 33q1.36 0 2.17.81.82.82.82 2.25 0 1.49-.85 2.38-.85.88-2.35.88-1.42 0-2.21-.81-.78-.82-.78-2.32 0-1.43.85-2.31.85-.88 2.35-.88m29.79-38.03q8.98 0 13.78 5.51 4.79 5.51 4.79 15.85 0 11.16-5.1 17.18t-14.56 6.02q-8.84 0-13.63-5.72-4.8-5.71-4.8-16.26 0-10.88 5.07-16.73t14.45-5.85m-.34 4.42q-13.6 0-13.6 17.55 0 9.32 3.3 13.81t9.96 4.49q13.61 0 13.61-17.89 0-9.11-3.3-13.54-3.3-4.42-9.97-4.42m41.09-4.08q6.39 0 9.86 3.3 3.47 3.3 3.47 9.49 0 7.28-4.32 11.43-4.32 4.15-11.94 4.15h-5.17v1.7l.28 13.6h-5.51l.34-13.13-.34-30.47zm-.88 23.95q4.21-.69 6.42-3.41t2.21-7.27q0-8.44-8.97-8.78l-6.6.2-.21 19.12zm48.09-23.88.41.54-.41 4.22-7.62-.41h-4.42l-.21 25.65.21 13.6h-5.51l.41-13.13-.34-26.12h-4.42l-7.76.41-.34-.54.41-4.22zm13.74 0-.34 30 .27 13.6h-5.51l.34-13.13-.34-30.47zm43.74 0-13.81 20.88 14.9 22.72h-6.6l-1.84-3.53-10.13-14.9-10.41 15.24-1.7 3.19h-5.85l14.83-22.04-14.29-21.56h6.6l1.84 3.47 9.39 13.94 9.38-14.01 1.77-3.4z"></path></g></g><path fill="#1f222a" stroke="#1f222a" stroke-width="3" d="M156.402 4.734v116.532"></path><path fill="#1f222a" d="M68.208.758c-34.34 0-62.311 27.97-62.311 62.311a61.66 61.66 0 0 0 7.892 30.186c0 .139.139.139.139.277.138.139.138.277.277.416.554.83.969 1.8 1.523 2.63 2.908 4.57 6.37 8.863 10.385 12.463 1.939 1.662 4.016 3.323 6.093 4.985a63.56 63.56 0 0 0 16.478 8.308 59.542 59.542 0 0 0 12.047 2.493c.554 0 1.107.138 1.661.138.416 0 .97.139 1.385.139 1.385.138 2.77.138 4.154.138 34.34 0 62.312-27.97 62.312-62.311S102.549.758 68.208.758m0 119.5c-5.954 0-11.77-.97-17.17-2.632l-6.093-33.648 45.834 31.71c-6.924 2.907-14.54 4.57-22.571 4.57m0-114.377c6.093 0 11.908.97 17.309 2.63l6.508 35.31L44.53 11.005c7.2-3.323 15.231-5.123 23.678-5.123m52.896 35.31a57.587 57.587 0 0 1 4.292 21.878c0 6.37-1.108 12.462-3.046 18.14l-33.925 6.23zM83.855 88.409 62.67 92.148 43.976 79.27 39.96 57.253 52.284 39.53l21.74-4.016L92.856 48.53l4.015 21.463zm35.587-50.68-19.94 28.525L89.117 9.897c13.293 5.123 24.094 15.231 30.325 27.832m-49.295-4.846L14.62 43.129c4.847-13.016 14.401-23.817 26.448-30.325zM11.02 63.069c0-5.677.83-11.216 2.354-16.478l34.34-6.37-31.848 45.834c-3.046-6.923-4.846-14.816-4.846-22.986m6.508 26.586L37.329 61.13l10.109 55.25a58.711 58.711 0 0 1-29.91-26.725m49.018 5.262 54.42-9.97a57.88 57.88 0 0 1-26.864 29.079z"></path><g transform="translate(404.57 85.425)"><filter id="b" width="144.54%" height="216.36%" x="-22.27%" y="-58.18%"><feGaussianBlur in="SourceAlpha" stdDeviation="3"></feGaussianBlur><feOffset dx="3" dy="3" result="oBlur"></feOffset><feFlood flood-color="#000" flood-opacity="1"></feFlood><feComposite in2="oBlur" operator="in"></feComposite><feMerge><feMergeNode></feMergeNode><feMergeNode in="SourceGraphic"></feMergeNode></feMerge></filter><g><path fill="#1f222a" d="M-192.24-9.535q3.07 0 4.74 1.58 1.66 1.59 1.66 4.56 0 3.49-2.07 5.48-2.08 2-5.73 2h-2.48v.81l.13 6.53h-2.65l.16-6.3-.16-14.63zm-.42 11.49q2.02-.32 3.08-1.63 1.06-1.3 1.06-3.49 0-4.05-4.31-4.21l-3.16.09-.1 9.18zm24.52-6.79-.1 11.17.07 5.09h-2.42l.1-4.89-.04-2.22-8.84.03-.04 1.99.07 5.09h-2.42l.1-4.89-.1-11.37h2.45l-.06 6.99 4.4.03 4.44-.03-.06-6.99zm12.24-.19q3.56 0 5.47 2.09 1.91 2.09 1.91 5.91 0 4.14-2.04 6.41-2.04 2.27-5.83 2.27-3.52 0-5.45-2.14-1.93-2.14-1.93-6.09 0-4.05 2.06-6.25t5.81-2.2m-.23 2.05q-2.58 0-3.83 1.47-1.26 1.47-1.26 4.64 0 3.4 1.24 4.93 1.24 1.53 3.79 1.53 2.61 0 3.88-1.5 1.28-1.5 1.28-4.7 0-3.3-1.26-4.83-1.26-1.54-3.84-1.54m22.18-1.86.13.2-.17 2.06-3.03-.23h-1.64l-.09 9.14.09 5.09h-2.45l.1-4.89-.06-9.34h-1.64l-3.1.23-.19-.23.19-2.03zm10.51-.19q3.56 0 5.47 2.09 1.91 2.09 1.91 5.91 0 4.14-2.04 6.41-2.04 2.27-5.83 2.27-3.53 0-5.45-2.14-1.93-2.14-1.93-6.09 0-4.05 2.06-6.25 2.05-2.2 5.81-2.2m-.23 2.05q-2.58 0-3.84 1.47-1.25 1.47-1.25 4.64 0 3.4 1.24 4.93 1.24 1.53 3.79 1.53 2.61 0 3.88-1.5t1.27-4.7q0-3.3-1.25-4.83-1.26-1.54-3.84-1.54m19.07-2.02q2.55 0 5.13 1.11l-.82 2.35h-.29q-1.21-.78-2.22-1.09-1.02-.31-2.19-.31-2.78 0-4.17 1.56-1.38 1.57-1.38 4.9 0 3.2 1.27 4.62t4.05 1.42q.82 0 1.57-.14.75-.15 1.82-.54v-1.64l-.03-2.31 2.26-.17v5.88q-3.3.98-5.72.98-3.85 0-5.83-2.07-1.97-2.08-1.97-5.93 0-4.18 2.23-6.4 2.24-2.22 6.29-2.22m17.6 9.86q1.99 3.04 4.41 5.98l-.04.32q-1.37.43-2.25.49l-.42-.26q-2.48-3.75-3.76-5.91l-3.07.03v.82l.07 5.09h-2.42l.1-4.89-.1-11.37 5.55-.03q2.58 0 3.97 1.21 1.39 1.21 1.39 3.49 0 1.67-.9 2.97-.9 1.31-2.53 2.06m-5.06-7.74-.04 6.37 3.07.1q2.91-.82 2.91-3.56 0-1.44-.85-2.16-.85-.72-2.58-.78zm20.73-1.96 5.72 16.26h-2.45l-.39-1.76-.85-2.42-3.89-.03-3.46.03-.88 2.29-.46 1.89h-2.42l6.27-16.26zm-1.66 10.12 3-.03-2.71-7.7h-.2l-2.97 7.7zm16.98-10.15q2.57 0 3.96 1.24 1.39 1.24 1.39 3.59 0 2.75-1.75 4.3-1.74 1.55-4.81 1.55h-1.99v.52l.06 5.09h-2.42l.1-4.89-.1-11.37zm-.43 8.78q3.23-.55 3.23-3.75 0-1.54-.86-2.29-.87-.75-2.6-.81l-2.48.03-.03 6.76zm23.71-8.75-.1 11.17.06 5.09h-2.41l.1-4.89-.04-2.22-8.85.03-.03 1.99.07 5.09h-2.42l.1-4.89-.1-11.37h2.45l-.07 6.99 4.41.03 4.44-.03-.06-6.99zm11.52 10.58-.03 1.01.1 4.67h-2.45l.13-4.67-.03-1.01-5.52-10.58h2.68l.32.95 3.66 6.99h.16l3.99-6.89.42-1.05h2.61zm38.56-5.84.53 1.4q-.66 1.24-1.46 1.85-.8.6-2.04.7-.88 0-3.62-.52-.16 2.48-1.44 4.4-1.27 1.93-3.43 2.99-2.15 1.06-4.86 1.06-4.02 0-6.32-2.33-2.3-2.34-2.3-6.32 0-2.42.86-4.28.87-1.86 2.35-2.89 1.49-1.03 3.32-1.03 1.73 0 2.73.84.99.83.99 2.14 0 .52-.13.94 3.07-2.25 5.42-4.99 2.35-2.75 3.66-5.65h.23q.75.75 1.04 1.79-1.24 2.78-4.03 5.73-2.79 2.96-6.48 5.44-3.69 2.48-7.48 3.89.52 2.25 2.14 3.51 1.61 1.25 4.19 1.25 2.16 0 3.89-.85 1.73-.84 2.71-2.41.98-1.57 1.01-3.63-1.3-.22-1.89-.22-.85 0-1.5.49-.66.48-1.18 1.53l-.33.03-.49-1.43q.63-1.21 1.44-1.82.82-.6 2.06-.73.68 0 1.97.24 1.29.25 1.69.31 2.8.59 3.75.59.98 0 1.62-.47.63-.48 1.06-1.52zm-18.48-3.17q-1.89 0-3.05 1.67-1.16 1.66-1.16 4.4v.4q2.32-.85 4.87-2.36Q.28.295.6-.345q.33-.63.33-1.19 0-.88-.55-1.31-.56-.42-1.51-.42m40.79-6.24-7.68 20.93h-3.03l-6.99-20.93h2.68l.49 2.13 5.32 16.16h.19l5.88-16.03.52-2.26zm5.61 4.67-.1 11.17.07 5.09h-2.42l.1-4.89-.1-11.37zm12.38-.13q3.72 0 5.69 1.99 1.98 2 1.98 5.72 0 4.28-2.15 6.56-2.16 2.29-6.18 2.29-1.14 0-2.72-.05-1.59-.05-2.99-.12l.1-4.89-.1-11.37zm-.26 14.56q2.61 0 4.03-1.58 1.42-1.58 1.42-4.78 0-3.14-1.34-4.64-1.34-1.5-4.05-1.5-1.6 0-3.75.13l-.07 9.11.03 3.07q.95.06 2 .13 1.04.06 1.73.06m17.95-.13 4.35-.13.19.2-.23 1.89h-9.89l.1-4.89-.1-11.37h9.96l.16.2-.19 1.89-4.12-.13-3.39.03-.04 4.93 3.24.04 2.84-.1.16.23-.19 1.92-3.01-.09-3.04.03-.03 2.22.03 3.1zm15.02-14.49q3.56 0 5.47 2.09 1.91 2.09 1.91 5.91 0 4.14-2.04 6.41-2.04 2.27-5.83 2.27-3.52 0-5.45-2.14-1.92-2.14-1.92-6.09 0-4.05 2.05-6.25 2.06-2.2 5.81-2.2m-.22 2.05q-2.58 0-3.84 1.47-1.26 1.47-1.26 4.64 0 3.4 1.24 4.93 1.24 1.53 3.79 1.53 2.61 0 3.89-1.5 1.27-1.5 1.27-4.7 0-3.3-1.26-4.83-1.25-1.54-3.83-1.54m19.06-2.02q2.55 0 5.13 1.11l-.82 2.35h-.29q-1.21-.78-2.22-1.09-1.01-.31-2.19-.31-2.77 0-4.16 1.56-1.39 1.57-1.39 4.9 0 3.2 1.28 4.62 1.27 1.42 4.04 1.42.82 0 1.57-.14.75-.15 1.83-.54v-1.64l-.03-2.31 2.25-.17v5.88q-3.3.98-5.71.98-3.86 0-5.83-2.07-1.98-2.08-1.98-5.93 0-4.18 2.24-6.4 2.24-2.22 6.28-2.22m17.6 9.86q2 3.04 4.41 5.98l-.03.32q-1.37.43-2.25.49l-.43-.26q-2.48-3.75-3.75-5.91l-3.07.03v.82l.06 5.09h-2.41l.09-4.89-.09-11.37 5.55-.03q2.58 0 3.96 1.21 1.39 1.21 1.39 3.49 0 1.67-.9 2.97-.89 1.31-2.53 2.06m-5.06-7.74-.03 6.37 3.07.1q2.91-.82 2.91-3.56 0-1.44-.85-2.16-.85-.72-2.58-.78zm20.74-1.96 5.71 16.26h-2.45l-.39-1.76-.85-2.42-3.88-.03-3.47.03-.88 2.29-.45 1.89h-2.42l6.27-16.26zm-1.67 10.12 3.01-.03-2.71-7.7h-.2l-2.97 7.7zm16.98-10.15q2.58 0 3.97 1.24 1.39 1.24 1.39 3.59 0 2.75-1.75 4.3-1.75 1.55-4.82 1.55h-1.99v.52l.07 5.09h-2.42l.1-4.89-.1-11.37zm-.42 8.78q3.23-.55 3.23-3.75 0-1.54-.87-2.29-.86-.75-2.59-.81l-2.48.03-.04 6.76zm23.7-8.75-.1 11.17.07 5.09h-2.42l.1-4.89-.03-2.22-8.85.03-.03 1.99.06 5.09h-2.41l.09-4.89-.09-11.37h2.44l-.06 6.99 4.41.03 4.44-.03-.07-6.99zm11.53 10.58-.03 1.01.09 4.67h-2.45l.13-4.67-.03-1.01-5.52-10.58h2.68l.33.95 3.65 6.99h.17l3.98-6.89.43-1.05h2.61z"></path></g></g><path stroke="#1f222a" stroke-width="3" d="M182.33 63h441.772"></path></svg></svg>