<svg xmlns="http://www.w3.org/2000/svg" version="1.1" xmlns:xlink="http://www.w3.org/1999/xlink" width="640" height="126" viewBox="0 0 640 126"><svg xml:space="preserve" width="640" height="126" data-version="2" data-id="lg_OzDpXkAYAW4ERWnZTF" viewBox="0 0 640 126" x="0" y="0"><rect width="100%" height="100%" fill="transparent"></rect><g transform="translate(410.333 27.911)"><filter id="a" width="144.38%" height="180.34%" x="-22.19%" y="-40.17%"><feGaussianBlur in="SourceAlpha" stdDeviation="3"></feGaussianBlur><feOffset dx="3" dy="3" result="oBlur"></feOffset><feFlood flood-color="#000" flood-opacity="1"></feFlood><feComposite in2="oBlur" operator="in"></feComposite><feMerge><feMergeNode></feMergeNode><feMergeNode in="SourceGraphic"></feMergeNode></feMerge></filter><g filter="url(#a)"><path fill="#fff" d="m-191.965-17.35-7.62.14-.13 15.17 7.34.13 7.08-.2.41.54-.48 4.15-7.55-.2-6.87.07-.07 5.64.27 13.61h-5.51l.34-13.13-.34-30.48h23.2l.41.55-.48 4.35zm21.97-4.56-.34 30 .28 13.61h-5.51l.34-13.13-.34-30.48zm24.49-.34q4.7 0 9.73 2.04l-.88 5.24-.96.27q-1.97-1.49-4.18-2.31-2.21-.82-4.39-.82-2.51 0-4.38 1.03-1.88 1.02-2.86 2.65-.99 1.63-.99 3.4 0 1.84 1.12 3.23 1.13 1.4 2.83 2.42 1.7 1.02 4.62 2.44 3.68 1.71 5.92 3.17 2.25 1.46 3.84 3.7 1.6 2.25 1.6 5.45 0 3.4-1.83 6.26-1.84 2.85-5.17 4.55-3.34 1.7-7.62 1.7-2.86 0-5.95-.78-3.1-.78-5.75-2.28l.68-5.58.75-.34q2.38 2.32 5.27 3.44 2.89 1.12 5.54 1.12 2.59 0 4.59-1.02 2.01-1.02 3.06-2.72 1.06-1.7 1.06-3.6 0-2.86-2.18-4.6-2.17-1.73-6.6-3.77-3.6-1.77-5.78-3.16-2.18-1.4-3.74-3.61t-1.56-5.41q0-3.33 1.8-6.12t5.03-4.39q3.23-1.6 7.38-1.6m35.85 0q6.87 0 11.91 3.27l-1.09 4.96-.61.14q-4.56-3.81-10.48-3.81-6.46 0-9.93 4.46-3.47 4.45-3.47 13.02 0 8.64 3.47 13.2 3.47 4.56 9.79 4.56 3 0 5.96-1.09t5.4-3.06l.68.34-.47 5.17q-5.92 3.26-12.04 3.26-8.78 0-13.61-5.68t-4.83-16.22q0-10.82 5.04-16.67 5.03-5.85 14.28-5.85m53.61.34-.28 30 .14 13.61h-5.37l.27-13.13-.07-6.53-12.11-.07-11.09.07-.06 6.05.2 13.61h-5.37l.2-13.13-.2-30.48h5.44l-.21 19.32 11.57.07 11.63-.07-.2-19.32zm37.27 38.85.34.54-.4 4.22h-24.49l.34-13.13-.34-30.48h24.55l.28.55-.41 4.22-10.27-.21-8.64.14-.14 14.28 8.16.14 7.21-.21.41.48-.47 4.22-7.62-.14-7.76.07-.07 6.46.21 9.05 8.64.07zM7.215 4.08q4.49 7.41 11.29 16.32l-.07.69q-2.45.95-5.03 1.22l-.75-.48q-5.58-8.36-10-16.32h-7.96v2.58l.27 13.61h-5.51l.34-13.13-.34-30.48 13.34-.06q6.39 0 9.9 3.23 3.5 3.23 3.5 9.21 0 4.49-2.35 8.06-2.35 3.58-6.63 5.55m-12.25-21.36-.2 18.16 8.16.21q7.62-2.18 7.62-10.14 0-4.15-2.24-6.22-2.25-2.08-6.74-2.21zm33.81 32.99q1.36 0 2.18.82.82.81.82 2.24 0 1.5-.85 2.38-.85.89-2.35.89-1.43 0-2.21-.82t-.78-2.31q0-1.43.85-2.31.85-.89 2.34-.89m29.8-38.02q8.98 0 13.77 5.51 4.8 5.51 4.8 15.85 0 11.15-5.1 17.17-5.1 6.02-14.56 6.02-8.84 0-13.64-5.71-4.8-5.72-4.8-16.26 0-10.88 5.07-16.73t14.46-5.85m-.34 4.42q-13.61 0-13.61 17.55 0 9.32 3.3 13.81t9.97 4.49q13.6 0 13.6-17.89 0-9.12-3.3-13.54t-9.96-4.42m41.09-4.08q6.39 0 9.86 3.29 3.47 3.3 3.47 9.49 0 7.28-4.32 11.43-4.32 4.15-11.94 4.15h-5.17v1.7l.27 13.61h-5.51l.34-13.13-.34-30.48zm-.89 23.94q4.22-.68 6.43-3.4 2.21-2.72 2.21-7.28 0-8.43-8.98-8.77l-6.6.2-.2 19.11zm48.09-23.88.41.55-.41 4.22-7.61-.41h-4.43l-.2 25.64.2 13.61h-5.51l.41-13.13-.34-26.12h-4.42l-7.75.41-.34-.55.4-4.22zm13.75 0-.34 30 .27 13.61h-5.51l.34-13.13-.34-30.48zm43.74 0-13.81 20.89 14.89 22.72h-6.59l-1.84-3.54-10.14-14.9-10.4 15.24-1.71 3.2h-5.85l14.83-22.04-14.28-21.57h6.6l1.83 3.47 9.39 13.95 9.39-14.02 1.77-3.4z"></path></g></g><path fill="#fff" stroke="#fff" stroke-width="3" d="M152.196 4.12v116.532"></path><path fill="#fff" d="M68.605.758c-34.34 0-62.311 27.97-62.311 62.311a61.66 61.66 0 0 0 7.892 30.186c0 .139.139.139.139.277.138.139.138.277.277.416.554.83.969 1.8 1.523 2.63 2.908 4.57 6.37 8.863 10.385 12.463 1.939 1.662 4.016 3.323 6.093 4.985a63.56 63.56 0 0 0 16.478 8.308 59.542 59.542 0 0 0 12.047 2.493c.554 0 1.107.138 1.661.138.416 0 .97.139 1.385.139 1.385.138 2.77.138 4.154.138 34.34 0 62.312-27.97 62.312-62.311S102.946.758 68.605.758m0 119.5c-5.954 0-11.77-.97-17.17-2.632l-6.093-33.648 45.834 31.71c-6.924 2.907-14.54 4.57-22.571 4.57m0-114.377c6.093 0 11.908.97 17.309 2.63l6.508 35.31-47.495-32.817c7.2-3.323 15.231-5.123 23.678-5.123m52.896 35.31a57.587 57.587 0 0 1 4.292 21.878c0 6.37-1.108 12.462-3.046 18.14l-33.925 6.23zM84.252 88.409l-21.186 3.739L44.373 79.27l-4.016-22.017L52.681 39.53l21.74-4.016L93.253 48.53l4.015 21.463zm35.587-50.68-19.94 28.525L89.514 9.897c13.293 5.123 24.094 15.231 30.325 27.832m-49.295-4.846L15.017 43.129c4.847-13.016 14.401-23.817 26.448-30.325zM11.417 63.069c0-5.677.83-11.216 2.354-16.478l34.34-6.37-31.848 45.834c-3.046-6.923-4.846-14.816-4.846-22.986m6.508 26.586L37.726 61.13l10.109 55.25a58.711 58.711 0 0 1-29.91-26.725m49.018 5.262 54.42-9.97a57.88 57.88 0 0 1-26.864 29.079z"></path><g transform="translate(413.993 84.811)"><filter id="b" width="144.22%" height="216.34%" x="-22.11%" y="-58.17%"><feGaussianBlur in="SourceAlpha" stdDeviation="3"></feGaussianBlur><feOffset dx="3" dy="3" result="oBlur"></feOffset><feFlood flood-color="#000" flood-opacity="1"></feFlood><feComposite in2="oBlur" operator="in"></feComposite><feMerge><feMergeNode></feMergeNode><feMergeNode in="SourceGraphic"></feMergeNode></feMerge></filter><g filter="url(#b)"><path fill="#fff" d="M-206.895-9.53q3.07 0 4.73 1.58 1.67 1.58 1.67 4.55 0 3.5-2.08 5.49-2.07 1.99-5.73 1.99h-2.48v.82l.13 6.53h-2.64l.16-6.3-.16-14.63zm-.43 11.49q2.03-.33 3.09-1.63 1.06-1.31 1.06-3.5 0-4.05-4.31-4.21l-3.17.1-.1 9.17zm24.52-6.79-.09 11.16.06 5.1h-2.42l.1-4.9-.03-2.22-8.85.03-.03 1.99.06 5.1h-2.41l.1-4.9-.1-11.36h2.45l-.07 6.99 4.41.03 4.44-.03-.07-6.99zm12.25-.2q3.56 0 5.47 2.09 1.91 2.09 1.91 5.91 0 4.15-2.04 6.42-2.04 2.27-5.83 2.27-3.53 0-5.45-2.14-1.93-2.14-1.93-6.09 0-4.05 2.06-6.25 2.05-2.21 5.81-2.21m-.23 2.06q-2.58 0-3.84 1.47-1.25 1.47-1.25 4.63 0 3.4 1.24 4.94 1.24 1.53 3.78 1.53 2.62 0 3.89-1.5t1.27-4.7q0-3.3-1.25-4.84-1.26-1.53-3.84-1.53m22.17-1.86.13.19-.16 2.06-3.04-.23h-1.63l-.1 9.14.1 5.1h-2.45l.1-4.9-.07-9.34h-1.63l-3.1.23-.2-.23.2-2.02zm10.51-.2q3.56 0 5.47 2.09 1.91 2.09 1.91 5.91 0 4.15-2.04 6.42-2.04 2.27-5.83 2.27-3.52 0-5.45-2.14-1.93-2.14-1.93-6.09 0-4.05 2.06-6.25 2.06-2.21 5.81-2.21m-.22 2.06q-2.58 0-3.84 1.47-1.26 1.47-1.26 4.63 0 3.4 1.24 4.94 1.24 1.53 3.79 1.53 2.61 0 3.89-1.5 1.27-1.5 1.27-4.7 0-3.3-1.26-4.84-1.26-1.53-3.83-1.53m19.06-2.03q2.55 0 5.13 1.11l-.82 2.36h-.29q-1.21-.79-2.22-1.1-1.01-.31-2.19-.31-2.77 0-4.16 1.57-1.39 1.57-1.39 4.9 0 3.2 1.27 4.62 1.28 1.42 4.05 1.42.82 0 1.57-.15.75-.15 1.83-.54V7.25l-.03-2.32 2.25-.16v5.87q-3.3.98-5.71.98-3.86 0-5.83-2.07-1.98-2.07-1.98-5.93 0-4.17 2.24-6.4 2.24-2.22 6.28-2.22m17.6 9.87q2 3.03 4.41 5.97l-.03.33q-1.37.42-2.25.49l-.43-.26q-2.48-3.76-3.75-5.91l-3.07.03v.81l.06 5.1h-2.41l.09-4.9-.09-11.36 5.55-.03q2.58 0 3.96 1.2 1.39 1.21 1.39 3.5 0 1.66-.9 2.97-.89 1.3-2.53 2.06m-5.06-7.74-.03 6.36 3.07.1q2.91-.81 2.91-3.56 0-1.43-.85-2.15t-2.58-.79zm20.74-1.96 5.71 16.26h-2.45l-.39-1.76-.85-2.42-3.88-.03-3.47.03-.88 2.28-.45 1.9h-2.42l6.27-16.26zm-1.67 10.12 3.01-.03-2.71-7.71h-.2l-2.97 7.71zm16.98-10.15q2.58 0 3.97 1.24 1.39 1.24 1.39 3.59 0 2.74-1.75 4.29-1.75 1.55-4.82 1.55h-1.99v.52l.07 5.1h-2.42l.1-4.9-.1-11.36zm-.42 8.78q3.23-.56 3.23-3.76 0-1.53-.87-2.28-.86-.75-2.59-.82l-2.48.03-.04 6.76zm23.7-8.75-.1 11.16.07 5.1h-2.42l.1-4.9-.03-2.22-8.85.03-.03 1.99.06 5.1h-2.41l.09-4.9-.09-11.36h2.44l-.06 6.99 4.41.03 4.44-.03-.07-6.99zm11.43 14.3 4.34-.13.2.19-.23 1.9h-9.89l.09-4.9-.09-11.36h9.95l.17.19-.2 1.9-4.11-.13-3.4.03-.03 4.93 3.23.03 2.84-.1.17.23-.2 1.93-3-.1-3.04.03-.03 2.22.03 3.11zm16.1-4.6q1.99 3.03 4.4 5.97l-.03.33q-1.37.42-2.25.49l-.43-.26q-2.48-3.76-3.75-5.91l-3.07.03v.81l.07 5.1h-2.42l.1-4.9-.1-11.36 5.55-.03q2.58 0 3.97 1.2 1.39 1.21 1.39 3.5 0 1.66-.9 2.97-.9 1.3-2.53 2.06m-5.06-7.74-.04 6.36 3.07.1q2.91-.81 2.91-3.56 0-1.43-.85-2.15t-2.58-.79zM17.645-.1l.53 1.41q-.66 1.24-1.46 1.84-.8.61-2.04.7-.88 0-3.62-.52-.17 2.48-1.44 4.41-1.27 1.93-3.43 2.99-2.15 1.06-4.86 1.06-4.02 0-6.32-2.34-2.3-2.33-2.3-6.32 0-2.41.86-4.27.87-1.86 2.35-2.89 1.49-1.03 3.32-1.03 1.73 0 2.72.83 1 .83 1 2.14 0 .52-.13.95 3.07-2.26 5.42-5t3.66-5.65h.23q.75.75 1.04 1.8-1.24 2.77-4.03 5.73-2.79 2.95-6.48 5.44-3.69 2.48-7.48 3.88.52 2.25 2.14 3.51 1.61 1.26 4.19 1.26 2.16 0 3.89-.85t2.71-2.42q.98-1.56 1.01-3.62-1.3-.23-1.89-.23-.85 0-1.5.49-.66.49-1.18 1.53l-.33.04-.49-1.44q.62-1.21 1.44-1.81.82-.61 2.06-.74.68 0 1.97.25 1.29.24 1.68.31 2.81.59 3.76.59.98 0 1.62-.48.63-.47 1.06-1.52zM-.835-3.27q-1.89 0-3.05 1.67t-1.16 4.41v.39q2.32-.85 4.87-2.35Q.575.29.895-.34q.33-.64.33-1.19 0-.89-.56-1.31-.55-.43-1.5-.43m40.79-6.23-7.68 20.93h-3.03L22.255-9.5h2.68l.49 2.12 5.32 16.16h.19l5.88-16.03.52-2.25zm5.61 4.67-.1 11.16.07 5.1h-2.42l.1-4.9-.1-11.36zm12.38-.13q3.72 0 5.69 1.99 1.98 1.99 1.98 5.71 0 4.28-2.16 6.57-2.15 2.28-6.17 2.28-1.14 0-2.72-.05-1.59-.05-2.99-.11l.1-4.9-.1-11.36zm-.26 14.56q2.61 0 4.03-1.58 1.42-1.59 1.42-4.79 0-3.13-1.34-4.63-1.34-1.51-4.05-1.51-1.6 0-3.75.13l-.07 9.11.03 3.07q.95.07 1.99.13 1.05.07 1.74.07m17.95-.13 4.35-.13.19.19-.23 1.9h-9.89l.1-4.9-.1-11.36h9.96l.16.19-.19 1.9-4.12-.13-3.39.03-.04 4.93 3.24.03 2.84-.1.16.23-.2 1.93-3-.1-3.04.03-.03 2.22.03 3.11zm15.02-14.5q3.56 0 5.47 2.09 1.91 2.09 1.91 5.91 0 4.15-2.04 6.42-2.04 2.27-5.83 2.27-3.52 0-5.45-2.14-1.93-2.14-1.93-6.09 0-4.05 2.06-6.25 2.06-2.21 5.81-2.21m-.22 2.06q-2.58 0-3.84 1.47-1.26 1.47-1.26 4.63 0 3.4 1.24 4.94 1.24 1.53 3.79 1.53 2.61 0 3.89-1.5 1.27-1.5 1.27-4.7 0-3.3-1.26-4.84-1.26-1.53-3.83-1.53M109.495-5q2.55 0 5.13 1.11l-.82 2.36h-.29q-1.21-.79-2.22-1.1-1.01-.31-2.19-.31-2.77 0-4.16 1.57-1.39 1.57-1.39 4.9 0 3.2 1.27 4.62 1.28 1.42 4.05 1.42.82 0 1.57-.15.75-.15 1.83-.54V7.25l-.03-2.32 2.25-.16v5.87q-3.3.98-5.71.98-3.86 0-5.83-2.07-1.98-2.07-1.98-5.93 0-4.17 2.24-6.4 2.24-2.22 6.28-2.22m17.6 9.87q2 3.03 4.41 5.97l-.03.33q-1.37.42-2.25.49l-.43-.26q-2.48-3.76-3.75-5.91l-3.07.03v.81l.06 5.1h-2.41l.09-4.9-.09-11.36 5.55-.03q2.58 0 3.96 1.2 1.39 1.21 1.39 3.5 0 1.66-.9 2.97-.89 1.3-2.53 2.06m-5.06-7.74-.03 6.36 3.07.1q2.91-.81 2.91-3.56 0-1.43-.85-2.15t-2.58-.79zm20.74-1.96 5.71 16.26h-2.45l-.39-1.76-.85-2.42-3.88-.03-3.47.03-.88 2.28-.45 1.9h-2.42l6.27-16.26zm-1.67 10.12 3.01-.03-2.71-7.71h-.2l-2.97 7.71zm16.98-10.15q2.58 0 3.97 1.24 1.39 1.24 1.39 3.59 0 2.74-1.75 4.29-1.75 1.55-4.82 1.55h-1.99v.52l.07 5.1h-2.42l.1-4.9-.1-11.36zm-.42 8.78q3.23-.56 3.23-3.76 0-1.53-.87-2.28-.86-.75-2.59-.82l-2.48.03-.04 6.76zm23.7-8.75-.1 11.16.07 5.1h-2.42l.1-4.9-.03-2.22-8.85.03-.03 1.99.06 5.1h-2.41l.09-4.9-.09-11.36h2.44l-.06 6.99 4.41.03 4.44-.03-.07-6.99zm11.43 14.3 4.34-.13.2.19-.23 1.9h-9.89l.09-4.9-.09-11.36h9.95l.17.19-.2 1.9-4.11-.13-3.4.03-.03 4.93 3.23.03 2.84-.1.17.23-.2 1.93-3-.1-3.04.03-.03 2.22.03 3.11zm16.1-4.6q1.99 3.03 4.4 5.97l-.03.33q-1.37.42-2.25.49l-.43-.26q-2.48-3.76-3.75-5.91l-3.07.03v.81l.07 5.1h-2.42l.1-4.9-.1-11.36 5.55-.03q2.58 0 3.97 1.2 1.39 1.21 1.39 3.5 0 1.66-.9 2.97-.9 1.3-2.53 2.06m-5.06-7.74-.04 6.36 3.07.1q2.91-.81 2.91-3.56 0-1.43-.85-2.15t-2.58-.79z"></path></g></g><path stroke="#fff" stroke-width="3" d="M191.934 62.386h441.772"></path></svg></svg>